<?xml version="1.0" encoding="UTF-8" standalone="no"?>
<svg xmlns:svg="http://www.w3.org/2000/svg" xmlns="http://www.w3.org/2000/svg">
  <defs>
    <symbol id="HUE-settings" viewBox="0 0 256 100">
      <path d="M 11.7,0 C 8.42,0 5.66,1.2 3.4,3.5 1.13,5.8 0,8.6 0,11.8 V 88 c 0,4 1.13,6 3.4,9 2.26,2 5.02,3 8.3,3 h 0.2 c 3.3,0 6.1,-1 8.4,-3 2.3,-3 3.5,-5 3.5,-9 V 56 h 33.1 v 32 c 0,4 1.1,6 3.3,9 2.3,2 5.1,3 8.4,3 h 0.1 c 3.2,0 6,-1 8.3,-3 2.3,-3 3.5,-5 3.5,-9 V 11.8 C 80.5,8.6 79.3,5.8 77,3.5 74.8,1.2 72,0 68.7,0 H 68.6 C 65.3,0 62.5,1.2 60.3,3.5 58,5.8 56.9,8.6 56.9,11.8 V 37 H 23.8 V 11.8 C 23.8,8.6 22.6,5.8 20.3,3.5 18,1.2 15.2,0 11.9,0 Z M 106,0 c -4,0.1 -8,1.2 -10.3,3.5 -2.2,2.2 -3.4,4.9 -3.4,8.2 V 57 c 0,12 4.2,22 12.7,30 9,8 19,13 31,13 h 1 c 11,0 21,-4 29,-13 8,-8 12,-18 12,-29 V 11.7 c 0,-3.3 -1,-6 -3,-8.3 C 173,1.1 170,0 165,0 v 0 c -3,0.1 -6,1.2 -8,3.5 -2,2.3 -4,5 -4,8.2 l 1,48.3 c 0,5 -2,10 -6,14 -3,3 -8,5 -12,5 h -1 c -4,0 -8,-2 -12,-6 -4,-3 -6,-8 -6,-13 l 1,-48.3 C 118,8.5 117,5.8 114,3.5 112,1.2 109,0 106,0 Z m 98,0.1 c -4,0 -7,1.4 -10,4.2 -2,2.8 -4,6.1 -4,9.9 V 86 c 0,3 2,7 4,10 3,2 6,4 10,4 h 43 c 2,0 4,-1 6,-3 2,-2 3,-4 3,-6 v -1 c 0,-2 -1,-4 -3,-6 -2,-2 -4,-2 -6,-2 H 214 V 57 l 29,1 c 2,0 4,-1 6,-3 2,-2 2,-4 2,-6 0,0 0,2 0,0 0,-1 0,-5 -2,-7 -2,-2 -4,-2 -6,-2 l -29,1 V 18.2 l 30,1.8 c 2,0.2 4,-0.3 6,-1.9 2,-1.7 4,-4.4 4,-6.9 0,-2.6 -1,-5.9 -3,-8 -2,-2.1 -4,-3.1 -7,-3.1 z" />
    </symbol>
  </defs>
  <path d="M 11.7,0 C 8.42,0 5.66,1.2 3.4,3.5 1.13,5.8 0,8.6 0,11.8 V 88 c 0,4 1.13,6 3.4,9 2.26,2 5.02,3 8.3,3 h 0.2 c 3.3,0 6.1,-1 8.4,-3 2.3,-3 3.5,-5 3.5,-9 V 56 h 33.1 v 32 c 0,4 1.1,6 3.3,9 2.3,2 5.1,3 8.4,3 h 0.1 c 3.2,0 6,-1 8.3,-3 2.3,-3 3.5,-5 3.5,-9 V 11.8 C 80.5,8.6 79.3,5.8 77,3.5 74.8,1.2 72,0 68.7,0 H 68.6 C 65.3,0 62.5,1.2 60.3,3.5 58,5.8 56.9,8.6 56.9,11.8 V 37 H 23.8 V 11.8 C 23.8,8.6 22.6,5.8 20.3,3.5 18,1.2 15.2,0 11.9,0 Z M 106,0 c -4,0.1 -8,1.2 -10.3,3.5 -2.2,2.2 -3.4,4.9 -3.4,8.2 V 57 c 0,12 4.2,22 12.7,30 9,8 19,13 31,13 h 1 c 11,0 21,-4 29,-13 8,-8 12,-18 12,-29 V 11.7 c 0,-3.3 -1,-6 -3,-8.3 C 173,1.1 170,0 165,0 v 0 c -3,0.1 -6,1.2 -8,3.5 -2,2.3 -4,5 -4,8.2 l 1,48.3 c 0,5 -2,10 -6,14 -3,3 -8,5 -12,5 h -1 c -4,0 -8,-2 -12,-6 -4,-3 -6,-8 -6,-13 l 1,-48.3 C 118,8.5 117,5.8 114,3.5 112,1.2 109,0 106,0 Z m 98,0.1 c -4,0 -7,1.4 -10,4.2 -2,2.8 -4,6.1 -4,9.9 V 86 c 0,3 2,7 4,10 3,2 6,4 10,4 h 43 c 2,0 4,-1 6,-3 2,-2 3,-4 3,-6 v -1 c 0,-2 -1,-4 -3,-6 -2,-2 -4,-2 -6,-2 H 214 V 57 l 29,1 c 2,0 4,-1 6,-3 2,-2 2,-4 2,-6 0,0 0,2 0,0 0,-1 0,-5 -2,-7 -2,-2 -4,-2 -6,-2 l -29,1 V 18.2 l 30,1.8 c 2,0.2 4,-0.3 6,-1.9 2,-1.7 4,-4.4 4,-6.9 0,-2.6 -1,-5.9 -3,-8 -2,-2.1 -4,-3.1 -7,-3.1 z" />
</svg>
