<?xml version="1.0" encoding="UTF-8" standalone="no"?>
<svg
   xmlns:svg="http://www.w3.org/2000/svg"
   xmlns="http://www.w3.org/2000/svg">
  <defs>
    <symbol id="plus" viewBox="0 0 448 512">
      <path d="M416 208H272V64c0-17.67-14.33-32-32-32h-32c-17.67 0-32 14.33-32 32v144H32c-17.67 0-32 14.33-32 32v32c0 17.67 14.33 32 32 32h144v144c0 17.67 14.33 32 32 32h32c17.67 0 32-14.33 32-32V304h144c17.67 0 32-14.33 32-32v-32c0-17.67-14.33-32-32-32z"/>
    </symbol>
  </defs>
  <rect width="50%" height="50%" x="0%" y="0%" fill="GrayText" fill-opacity=".45"/>
  <rect width="50%" height="50%" x="50%" y="50%" fill="GrayText" fill-opacity=".45"/>
</svg>
